# xmcd CD database file
#
# Track frame offsets:
#	150
#	14230
#	30855
#	43668
#	57695
#	71822
#	86271
#	99710
#	112851
#	126355
#	140547
#	153333
#	171213
#	187811
#
# Disc length: 2755 seconds
#
# Revision: 0
# Processed by: cddbd v1.5.2PL0 Copyright (c) Steve Scherf et al.
# Submitted via: CDex 2.16
#
DISCID=bd0ac10e
DTITLE=Jake Owen - Greetings From... Jake
DYEAR=2019
DGENRE=Country
TTITLE0=Down to the Honkytonk
TTITLE1=Ain't Here to Talk
TTITLE2=Catch a Cold One
TTITLE3=I Was Jack (You Were Diane)
TTITLE4=Grass Is Always Greener (Feat. Kid Rock)
TTITLE5=Homemaid
TTITLE6=Drink All Day
TTITLE7=That's on Me
TTITLE8=Senorita (Feat. Lele Pons)
TTITLE9=In It
TTITLE10=River of Time
TTITLE11=Made for You
TTITLE12=Mexico in Our Minds
TTITLE13=Damn
EXTD=YEAR: 2019
EXTT0=
EXTT1=
EXTT2=
EXTT3=
EXTT4=
EXTT5=
EXTT6=
EXTT7=
EXTT8=
EXTT9=
EXTT10=
EXTT11=
EXTT12=
EXTT13=
PLAYORDER=
